<svg height="512" viewBox="0 0 64 64" width="512" xmlns="http://www.w3.org/2000/svg"><g id="alien"><path d="m47 18v39h-.01c-3.75 0-3.75 4-7.5 4s-3.75-4-7.5-4-3.75 4-7.5 4-3.75-3.99-7.49-4v-39a15 15 0 0 1 30 0z" fill="#bb7fd9"/><path d="m47 18v39h-.01c-3.75 0-3.75 4-7.5 4a4.373 4.373 0 0 1 -1-.11c2.79-.64 3.12-3.89 6.5-3.89h.01v-39a15.013 15.013 0 0 0 -14-14.96c.33-.03.66-.04 1-.04a15.023 15.023 0 0 1 15 15z" fill="#a25bcd"/><path d="m43 17s-5.48 10-11 10a.97.97 0 0 1 -.17-.01c-5.46-.19-10.83-9.99-10.83-9.99s5.48-10 11-10a.97.97 0 0 1 .17.01c5.46.19 10.83 9.99 10.83 9.99z" fill="#ff7956"/><path d="m43 17s-5.48 10-11 10a.97.97 0 0 1 -.17-.01 4.27 4.27 0 0 1 -.8-.1c5.15-1.1 9.97-9.89 9.97-9.89s-4.85-8.85-10.02-9.89a5.054 5.054 0 0 1 1.02-.11.97.97 0 0 1 .17.01c5.46.19 10.83 9.99 10.83 9.99z" fill="#ff6243"/><circle cx="55" cy="5" fill="#ffde55" r="2"/><circle cx="54" cy="22" fill="#ffde55" r="2"/><path d="m47 44v4h-10v-2-2z" fill="#2488ff"/><ellipse cx="32" cy="17" fill="#ffde55" rx="2" ry="7"/><rect fill="#ffde55" height="10" rx="2" width="10" x="27" y="41"/><path d="m45 44h2v4h-2z" fill="#006df0"/><path d="m37 43v6a2.006 2.006 0 0 1 -2 2h-2a2.006 2.006 0 0 0 2-2v-6a2.006 2.006 0 0 0 -2-2h2a2.006 2.006 0 0 1 2 2z" fill="#ffcd00"/><circle cx="32" cy="46" fill="#2488ff" r="2"/><path d="m34 46a2 2 0 0 1 -3 1.73 2 2 0 0 0 0-3.46 2 2 0 0 1 3 1.73z" fill="#006df0"/><path d="m27 46v2h-10v-4h10z" fill="#2488ff"/><circle cx="12" cy="5" fill="#ffde55" r="2"/><circle cx="9" cy="22" fill="#ffde55" r="2"/><circle cx="32" cy="17" fill="#ddb200" r="2"/><path d="m58.2 31.4c-.768 1.021-1.25 1.6-2.21 1.6s-1.433-.578-2.2-1.6c-.8-1.069-1.8-2.4-3.8-2.4a3.688 3.688 0 0 0 -1.99.558v-11.558a16.021 16.021 0 0 0 -16-16 16.019 16.019 0 0 0 -16 16v11.558a3.688 3.688 0 0 0 -1.99-.558c-2 0-3 1.331-3.8 2.4-.767 1.022-1.247 1.6-2.2 1.6s-1.442-.579-2.21-1.6c-.8-1.071-1.8-2.4-3.8-2.4v2c.953 0 1.433.577 2.2 1.6.8 1.068 1.8 2.4 3.81 2.4s3-1.331 3.8-2.4c.766-1.022 1.246-1.6 2.2-1.6.872 0 1.367.511 1.99 1.332v5.226a3.688 3.688 0 0 0 -1.99-.558c-2 0-3 1.331-3.8 2.4-.767 1.022-1.247 1.6-2.2 1.6s-1.442-.579-2.21-1.6c-.8-1.071-1.8-2.4-3.8-2.4v2c.953 0 1.433.577 2.2 1.6.8 1.068 1.8 2.4 3.81 2.4s3-1.331 3.8-2.4c.766-1.022 1.246-1.6 2.2-1.6.872 0 1.367.511 1.99 1.332v15.768a6.206 6.206 0 0 0 -3.484 2.219c-.882.938-1.578 1.681-3.016 1.681s-2.137-.743-3.019-1.684a5.758 5.758 0 0 0 -4.481-2.316v2c1.441 0 2.137.743 3.019 1.684a5.758 5.758 0 0 0 4.481 2.316 5.758 5.758 0 0 0 4.478-2.316c.879-.941 1.575-1.684 3.016-1.684s2.137.743 3.019 1.684a5.76 5.76 0 0 0 4.478 2.316 5.76 5.76 0 0 0 4.479-2.316c.882-.941 1.579-1.684 3.02-1.684s2.139.743 3.022 1.685a5.491 5.491 0 0 0 8.959 0c.882-.942 1.579-1.685 3.02-1.685s2.14.743 3.023 1.684a5.495 5.495 0 0 0 8.963 0c.882-.941 1.58-1.684 3.023-1.684v-2a5.765 5.765 0 0 0 -4.482 2.316c-.882.941-1.58 1.684-3.018 1.684s-2.141-.743-3.023-1.685a6.237 6.237 0 0 0 -3.477-2.215v-15.768c.623-.821 1.118-1.332 1.99-1.332.954 0 1.434.578 2.2 1.6.8 1.069 1.8 2.4 3.8 2.4s3.01-1.332 3.81-2.4c.767-1.022 1.247-1.6 2.2-1.6v-2c-2 0-3 1.329-3.8 2.4-.768 1.021-1.25 1.6-2.21 1.6s-1.433-.578-2.2-1.6c-.8-1.069-1.8-2.4-3.8-2.4a3.688 3.688 0 0 0 -1.99.558v-5.226c.623-.821 1.118-1.332 1.99-1.332.954 0 1.434.578 2.2 1.6.8 1.069 1.8 2.4 3.8 2.4s3.01-1.332 3.81-2.4c.767-1.022 1.247-1.6 2.2-1.6v-2c-2 0-3 1.329-3.8 2.4zm-12.2 15.6h-8v-2h8zm-14-43a14.022 14.022 0 0 1 14 14v25h-8a3 3 0 0 0 -3-3h-6a3 3 0 0 0 -3 3h-8v-25a14.015 14.015 0 0 1 14-14zm4 39v6a1 1 0 0 1 -1 1h-6a1 1 0 0 1 -1-1v-6a1 1 0 0 1 1-1h6a1 1 0 0 1 1 1zm-10 4h-8v-2h8zm16.512 11.316c-.882.941-1.578 1.684-3.02 1.684s-2.139-.743-3.021-1.684a5.491 5.491 0 0 0 -8.96 0c-.882.941-1.578 1.684-3.02 1.684s-2.137-.743-3.019-1.684a6.219 6.219 0 0 0 -3.472-2.216v-7.1h8a3 3 0 0 0 3 3h6a3 3 0 0 0 3-3h8v7.1a6.215 6.215 0 0 0 -3.488 2.216z"/><path d="m32 28c6.046 0 11.642-10.09 11.877-10.52a1 1 0 0 0 0-.96c-.235-.43-5.831-10.52-11.877-10.52s-11.642 10.09-11.877 10.52a1 1 0 0 0 0 .96c.235.43 5.831 10.52 11.877 10.52zm0-20c3.812 0 8.159 6.1 9.851 9-1.69 2.9-6.033 9-9.851 9s-8.159-6.1-9.851-9c1.69-2.9 6.033-9 9.851-9z"/><path d="m32 25c2.916 0 3-7.182 3-8s-.084-8-3-8-3 7.182-3 8 .084 8 3 8zm0-13.829a13.032 13.032 0 0 1 1 5.829 13.032 13.032 0 0 1 -1 5.829 13.032 13.032 0 0 1 -1-5.829 13.032 13.032 0 0 1 1-5.829z"/><path d="m12 8a3 3 0 1 0 -3-3 3 3 0 0 0 3 3zm0-4a1 1 0 1 1 -1 1 1 1 0 0 1 1-1z"/><path d="m6 22a3 3 0 1 0 3-3 3 3 0 0 0 -3 3zm3-1a1 1 0 1 1 -1 1 1 1 0 0 1 1-1z"/><path d="m54 25a3 3 0 1 0 -3-3 3 3 0 0 0 3 3zm0-4a1 1 0 1 1 -1 1 1 1 0 0 1 1-1z"/><path d="m55 8a3 3 0 1 0 -3-3 3 3 0 0 0 3 3zm0-4a1 1 0 1 1 -1 1 1 1 0 0 1 1-1z"/><path d="m56 12h2v2h-2z"/><path d="m58 10h2v2h-2z"/><path d="m58 14h2v2h-2z"/><path d="m60 12h2v2h-2z"/><path d="m2 12h2v2h-2z"/><path d="m4 10h2v2h-2z"/><path d="m4 14h2v2h-2z"/><path d="m6 12h2v2h-2z"/><path d="m34.748 32.342c-.927 1.058-1.512 1.658-2.748 1.658s-1.821-.6-2.748-1.658a5.353 5.353 0 0 0 -4.252-2.342v2c1.236 0 1.821.6 2.748 1.658a5.353 5.353 0 0 0 4.252 2.342 5.353 5.353 0 0 0 4.252-2.342c.927-1.058 1.512-1.658 2.748-1.658v-2a5.353 5.353 0 0 0 -4.252 2.342z"/><path d="m32 43a3 3 0 1 0 3 3 3 3 0 0 0 -3-3zm0 4a1 1 0 1 1 1-1 1 1 0 0 1 -1 1z"/></g></svg>